<svg xmlns="http://www.w3.org/2000/svg" viewBox="0 0 62.13 76.47">
  <path d="M41.54 27.75v28.39c0 4.9-4.69 8.87-10.48 8.87h0c-5.79 0-10.48-3.97-10.48-8.87V10.87c0-4.9 4.69-8.87 10.48-8.87h0c5.79 0 10.48 3.97 10.48 8.87v16.88Z" style="stroke:#000;stroke-linecap:round;stroke-linejoin:round;stroke-width:4px;fill:#fff"/>
  <path style="fill:none;stroke:#000;stroke-linecap:round;stroke-linejoin:round;stroke-width:4px" d="M2 27.75h58.13v46.72H2z"/>
  <path d="M31.59 33.31c-.64.55-1.3 1.09-1.97 1.61l.38-.29c-1.2.93-2.45 1.8-3.73 2.62-.83.53-1.24 1.69-.67 2.57.53.83 1.68 1.24 2.57.67a54.73 54.73 0 0 0 6.08-4.52c.35-.3.55-.88.55-1.33s-.2-1.01-.55-1.33c-.8-.73-1.85-.68-2.65 0ZM33.32 41.77a67.674 67.674 0 0 0-6.88 5.53c-.72.66-.72 1.99 0 2.65.78.71 1.88.71 2.65 0 1.01-.93 2.05-1.82 3.12-2.69.25-.2.5-.4.76-.6.05-.04.33-.26.1-.08-.22.17 0 0 .05-.04.13-.1.26-.2.39-.29.56-.42 1.14-.84 1.71-1.25.41-.29.73-.63.86-1.12.12-.45.07-1.05-.19-1.44-.51-.79-1.71-1.28-2.57-.67ZM33.97 51.76c-2 1.4-3.95 2.89-5.83 4.45-.35.29-.55.89-.55 1.33 0 .46.2 1.01.55 1.33s.83.57 1.33.55.92-.22 1.33-.55c.77-.64 1.56-1.27 2.35-1.89l-.38.29a84.76 84.76 0 0 1 3.1-2.27c.41-.28.73-.63.86-1.12.12-.45.07-1.05-.19-1.44-.51-.8-1.71-1.27-2.57-.67Z"/>
</svg>