<?xml version="1.0" encoding="UTF-8"?><svg xmlns="http://www.w3.org/2000/svg" viewBox="0 0 26.62 32.76"><defs><style>.e{fill:#fff;}</style></defs><g id="a"/><g id="b"><g id="c"><g id="d"><g><path class="e" d="M13.31,32.76c-4.05,0-8.1,0-12.14,0-.13,0-.26,0-.38-.02-.47-.08-.75-.4-.77-.87,0-.06,0-.12,0-.18C0,25.14,0,18.6,0,12.06c0-.42,.11-.76,.51-.96,.19-.09,.39-.11,.6-.11,2.15,0,4.31,0,6.46,0q.37,0,.37-.37c0-1.84,.05-3.69-.01-5.53-.08-2.52,1.59-4.19,3.47-4.78,2.05-.64,3.96-.36,5.65,1.01,1.09,.89,1.64,2.07,1.64,3.49,0,1.95,0,3.9,0,5.85,0,.33,0,.33,.33,.33,2.14,0,4.29,0,6.43,0,.13,0,.26,0,.38,.02,.41,.06,.69,.32,.76,.73,.02,.13,.03,.25,.03,.38,0,6.5,0,12.99,0,19.49,0,.13,0,.26-.03,.38-.07,.4-.34,.66-.74,.73-.13,.02-.27,.03-.41,.03-4.05,0-8.1,0-12.14,0Zm0-1.79c3.75,0,7.49,0,11.24,0,.23,0,.29-.06,.29-.29,0-5.87,0-11.74,0-17.61q0-.29-.3-.29c-1.83,0-3.66,0-5.48,0q-.36,0-.36,.36c0,3.56,0,7.12,0,10.67,0,.36-.02,.73-.1,1.08-.34,1.46-1.23,2.49-2.54,3.16-1.62,.82-3.31,.88-5,.21-1.79-.71-3.15-2.34-3.12-4.57,.05-3.53,.01-7.07,.01-10.61,0-.3,0-.3-.3-.3-1.84,0-3.69,0-5.53,0q-.32,0-.32,.33c0,5.85,0,11.69,0,17.54q0,.32,.32,.32c3.73,0,7.46,0,11.19,0Zm-3.58-12.4c0,1.77,.01,3.53,0,5.3,0,.99,.41,1.76,1.21,2.31,1.36,.93,2.83,1,4.3,.29,1.12-.54,1.69-1.46,1.69-2.74-.02-3.55,0-7.1,0-10.65,0-.23-.07-.29-.29-.29-2.2,0-4.4,0-6.59,0q-.3,0-.3,.3c0,1.83,0,3.66,0,5.48Zm3.58-7.57c1.1,0,2.21,0,3.31,0,.22,0,.3-.06,.3-.29,0-1.98,0-3.96,0-5.94,0-.72-.26-1.34-.76-1.86-1.29-1.33-3.7-1.51-5.21-.39-.8,.59-1.22,1.36-1.21,2.38,.02,1.93,.01,3.87,0,5.8,0,.23,.07,.3,.3,.29,1.09-.01,2.19,0,3.29,0Z"/><path class="e" d="M14.65,17.74c.34,0,.71,.25,.81,.55,.13,.36,.01,.74-.32,.98-.51,.37-1.03,.74-1.51,1.15-.38,.32-.76,.65-1.13,.97-.4,.35-.92,.33-1.25-.05-.3-.34-.24-.85,.14-1.19,.86-.79,1.76-1.51,2.71-2.19,.26-.19,.36-.23,.55-.23Z"/><path class="e" d="M14.09,14.02c.36,0,.66,.2,.78,.5,.13,.33,.08,.65-.18,.89-.81,.74-1.7,1.38-2.63,1.96-.35,.22-.81,.1-1.07-.24-.24-.32-.21-.75,.08-1.05,.08-.09,.18-.16,.28-.23,.74-.47,1.44-1,2.11-1.56,.19-.16,.39-.29,.64-.27Z"/><path class="e" d="M15.79,22.87c-.02,.27-.13,.5-.36,.65-.79,.55-1.54,1.15-2.29,1.74-.39,.31-.89,.24-1.19-.13-.28-.36-.22-.85,.16-1.17,.76-.64,1.56-1.24,2.38-1.81,.28-.19,.57-.19,.85-.02,.28,.16,.44,.4,.44,.74Z"/></g></g></g></g></svg>