<?xml version="1.0" encoding="UTF-8"?><svg xmlns="http://www.w3.org/2000/svg" viewBox="0 0 174.09 178.93"><g id="a"/><g id="b"><g id="c"><g id="d"><g><path d="M82.26,0c39.18-.42,73.92,27.43,81.52,66.18,5.08,25.89-1.01,49.23-17.75,69.7-1.1,1.34-1.28,2.18,.02,3.57,8.46,8.99,16.82,18.08,25.23,27.12,1.73,1.86,3.14,3.84,2.71,6.54-.43,2.71-1.94,4.7-4.6,5.49-2.6,.76-5.02,.24-6.94-1.81-4.8-5.13-9.58-10.28-14.36-15.43-3.99-4.3-8-8.58-11.94-12.93-1.08-1.19-1.82-1.08-3.05-.14-12.51,9.51-26.53,15.27-42.24,16.67-24.11,2.16-45.34-4.66-63.4-20.78C11.85,130.23,2.72,112.68,.53,91.91-2.28,65.24,6.01,42.16,25.11,23.33,38.66,9.97,55.15,2.32,74.19,.37c2.86-.29,5.72-.3,8.07-.37Zm69.7,82.67c.48-37.13-30.24-69.3-69.13-69.34-37.5-.04-69.26,30-69.45,69.13-.18,38.4,30.93,69.45,69.23,69.54,38.7,.1,69.79-31.8,69.35-69.33Z"/><path d="M48.68,82.69c-.4-16.9,13.11-34.08,34.02-34.15,19.83-.07,34.16,15.98,34.16,34.1,0,18.46-14.63,34.22-34.12,34.15-20.87-.07-34.45-17.2-34.06-34.11Zm54.63,.24c.08-11.67-8.82-20.8-20.35-20.88-11.49-.08-20.84,8.93-20.91,20.17-.08,11.76,8.86,20.99,20.42,21.08,11.65,.09,20.77-8.82,20.85-20.37Z"/></g></g></g></g></svg>