<svg xmlns="http://www.w3.org/2000/svg" viewBox="0 0 40.78 84.98">
  <rect x="2" y="2" width="36.78" height="80.98" rx="18.39" ry="18.39" style="fill:none;stroke:#000;stroke-miterlimit:10;stroke-width:4px"/>
  <path d="M23.58 15.28c-.98.84-1.98 1.67-2.99 2.48l-.74.59c-.12.1-.25.19-.37.29-.32.25.27-.2-.05.04-.53.41-1.06.81-1.6 1.21-2.08 1.54-4.22 3.01-6.4 4.4-1.1.7-1.65 2.26-.9 3.42.71 1.1 2.24 1.65 3.42.9 4.61-2.94 9.01-6.23 13.17-9.79 1-.85.94-2.67 0-3.54-1.06-.97-2.47-.91-3.54 0ZM27.09 34.34c-5.23 3.68-10.24 7.69-14.95 12.02-.97.89-.97 2.65 0 3.54 1.03.95 2.5.95 3.54 0 4.55-4.18 9.01-7.77 13.94-11.24 1.07-.75 1.67-2.22.9-3.42-.68-1.06-2.28-1.7-3.42-.9ZM28.53 56.53c-4.34 3.03-8.55 6.25-12.61 9.64-1.01.84-.93 2.68 0 3.54 1.07.98 2.46.9 3.54 0 .95-.79 1.9-1.57 2.86-2.34.48-.38.96-.77 1.45-1.15.24-.19.49-.38.73-.57-.2.16-.1.08.04-.03.15-.12.31-.23.46-.35 1.99-1.52 4.01-2.99 6.06-4.42 1.07-.75 1.67-2.22.9-3.42-.69-1.06-2.27-1.7-3.42-.9Z"/>
</svg>