<?xml version="1.0" encoding="UTF-8"?><svg xmlns="http://www.w3.org/2000/svg" viewBox="0 0 60.26 59.99"><defs><style>.d{fill:#fff;}</style></defs><g id="a"/><g id="b"><g id="c"><path class="d" d="M30.12,59.99C13.54,60.01,.04,46.68,0,30.27-.04,13.7,13.56,0,30.06,0c16.54,0,30.19,13.52,30.19,29.92,0,16.66-13.42,30.06-30.14,30.07Zm-3.42-20.28c0,1.44-.02,2.88,0,4.32,.07,4.59-.69,3.84,4.08,3.97,1.49,.04,2.04-.43,2.01-1.96-.08-4.26,0-8.52-.03-12.78,0-1.18,.32-1.79,1.64-1.85,4.03-.18,4.03-.22,4.49-4.19,.01-.11,.03-.23,.04-.34,.12-.94-.29-1.43-1.24-1.44-1.21-.01-2.42,0-3.63,0-.63,0-1.08-.11-1.26-.85-1.13-4.54,.32-6.58,4.84-6.71,.12,0,.23-.01,.35,0,.94,.06,1.3-.36,1.36-1.32,.25-3.94-.03-4.27-4-4.3-.46,0-.92-.01-1.38,.02-3.79,.3-6.4,2.45-7.08,5.96-.23,1.17-.16,2.41-.17,3.61-.02,3.56-.01,3.62-3.57,3.54-1.5-.03-2.01,.41-2,1.95,.05,3.92-.02,3.96,3.82,4.06,1.24,.03,1.78,.47,1.75,1.74-.05,2.19-.01,4.38-.01,6.56Z"/></g></g></svg>