<?xml version="1.0" encoding="UTF-8"?><svg xmlns="http://www.w3.org/2000/svg" viewBox="0 0 103.22 102.77"><defs><style>.d{fill:#005c49;}</style></defs><g id="a"/><g id="b"><g id="c"><path class="d" d="M51.59,102.77C23.2,102.79,.06,79.96,0,51.85-.06,23.47,23.24,.02,51.5,0c28.34-.02,51.71,23.15,51.72,51.26,0,28.54-22.99,51.49-51.63,51.52Zm-5.86-34.74c0,2.47-.03,4.93,0,7.4,.12,7.86-1.18,6.57,6.99,6.8,2.55,.07,3.5-.73,3.45-3.36-.13-7.3,0-14.6-.06-21.9-.01-2.01,.54-3.06,2.81-3.16,6.9-.3,6.9-.38,7.69-7.17,.02-.2,.05-.39,.07-.59,.21-1.61-.5-2.45-2.12-2.47-2.07-.02-4.14-.02-6.21,0-1.08,.01-1.85-.18-2.17-1.46-1.94-7.78,.55-11.28,8.28-11.5,.2,0,.4-.02,.59,0,1.62,.11,2.22-.62,2.32-2.26,.43-6.75-.05-7.32-6.85-7.36-.79,0-1.58-.02-2.37,.04-6.49,.52-10.97,4.19-12.14,10.21-.39,2.01-.28,4.12-.29,6.19-.04,6.09-.02,6.2-6.12,6.07-2.56-.06-3.45,.7-3.42,3.34,.08,6.72-.03,6.79,6.55,6.96,2.13,.06,3.04,.81,3,2.97-.08,3.75-.02,7.5-.02,11.24Z"/></g></g></svg>