<?xml version="1.0" encoding="UTF-8"?><svg xmlns="http://www.w3.org/2000/svg" viewBox="0 0 103.29 102.8"><defs><style>.d{fill:#005c49;}</style></defs><g id="a"/><g id="b"><g id="c"><g><path class="d" d="M51.88,0c28.33,.01,51.45,23.17,51.41,51.47-.04,28.15-23.37,51.32-51.67,51.33C23.08,102.8-.01,79.74,0,51.23,.01,22.81,23.13-.01,51.88,0Zm-.13,24.57v.03c-4.04,0-8.09-.11-12.12,.02-8.87,.29-14.67,5.85-14.94,14.69-.25,7.98-.27,15.98,0,23.95,.32,8.96,6.26,14.74,15.1,14.92,7.98,.17,15.97,.17,23.95-.01,7.95-.18,13.47-5.04,14.47-12.87,1.12-8.82,.95-17.75,.22-26.56-.78-9.37-6.29-13.92-15.75-14.15-3.65-.09-7.29-.01-10.94-.01Z"/><path class="d" d="M51.64,28.53c4.72,.15,9.48-.53,14.17,.45,4.95,1.04,8,4.3,8.47,9.31,.82,8.76,.67,17.54-.02,26.31-.37,4.66-3.43,8.38-8.06,9.01-9.8,1.34-19.68,1.25-29.49-.02-4.08-.53-7.09-4.08-7.61-8.42-1.04-8.65-.99-17.35-.18-25.99,.67-7.1,4.26-10.24,11.47-10.61,3.74-.19,7.5-.03,11.25-.03Zm13.58,22.88c0-7.67-6.07-13.77-13.65-13.72-7.63,.04-13.52,6.07-13.51,13.81,.01,7.54,6.28,13.73,13.76,13.59,7.51-.14,13.41-6.16,13.4-13.68Z"/><path class="d" d="M51.43,60.82c-5.5-.05-9.46-4.1-9.38-9.6,.08-5.31,4.38-9.46,9.74-9.39,5.21,.07,9.56,4.56,9.45,9.74-.12,5.33-4.33,9.3-9.81,9.25Z"/></g></g></g></svg>