<?xml version="1.0" encoding="UTF-8"?><svg xmlns="http://www.w3.org/2000/svg" viewBox="0 0 103.2 102.83"><defs><style>.d{fill:#005c49;}</style></defs><g id="a"/><g id="b"><g id="c"><g><path class="d" d="M51.42,102.83C22.91,102.78-.04,79.87,0,51.5,.04,22.96,23.32-.08,52.02,0c27.8,.08,51.25,23.53,51.18,51.17-.07,28.77-23.07,51.72-51.78,51.66ZM18.05,52.25c-.31,3.62,.21,7.85,.66,12.05,.6,5.68,3.13,9.41,9.27,9.96,6.6,.59,13.2,.33,19.8,.68,9.35,.49,18.73-.03,28.05-.83,5.15-.44,7.35-2.67,8.23-7.76,1.61-9.39,1.57-18.86,.31-28.27-.81-6.03-3.54-8.79-8.28-9.3-2.64-.29-5.3-.58-7.96-.59-13.31-.06-26.63-.51-39.93,.47-5.24,.39-7.93,2.42-9.02,7.66-1.05,5.03-1.19,10.17-1.12,15.94Z"/><path class="d" d="M44.01,51.2c0-2.47-.05-4.93,.02-7.4,.04-1.64,.67-2.41,2.43-1.47,4.79,2.55,9.6,5.05,14.43,7.52,2.03,1.04,1.61,1.77-.11,2.69-4.7,2.5-9.39,5.04-14.03,7.65-2,1.12-2.72,.4-2.76-1.59-.04-2.47,0-4.93,0-7.4h.02Z"/></g></g></g></svg>