<?xml version="1.0" encoding="UTF-8"?><svg xmlns="http://www.w3.org/2000/svg" viewBox="0 0 60.3 60.01"><defs><style>.d{fill:#fff;}</style></defs><g id="a"/><g id="b"><g id="c"><g><path class="d" d="M30.29,0c16.54,0,30.04,13.52,30.01,30.05-.03,16.43-13.64,29.96-30.16,29.96C13.47,60.01,0,46.55,0,29.91,0,13.32,13.5,0,30.29,0Zm-.08,14.34h0c-2.36,.01-4.72-.05-7.08,.03-5.18,.17-8.56,3.42-8.72,8.58-.14,4.66-.16,9.33,0,13.98,.19,5.23,3.65,8.6,8.82,8.71,4.66,.1,9.32,.1,13.98,0,4.64-.1,7.87-2.94,8.45-7.51,.66-5.15,.56-10.36,.13-15.51-.45-5.47-3.67-8.12-9.19-8.26-2.13-.05-4.26,0-6.39,0Z"/><path class="d" d="M30.15,16.65c2.76,.09,5.53-.31,8.27,.26,2.89,.6,4.67,2.51,4.95,5.44,.48,5.12,.39,10.24-.01,15.36-.22,2.72-2,4.89-4.7,5.26-5.72,.78-11.49,.73-17.22-.01-2.38-.31-4.14-2.38-4.44-4.92-.61-5.05-.58-10.13-.11-15.17,.39-4.14,2.49-5.98,6.7-6.19,2.18-.11,4.38-.02,6.57-.02Zm7.93,13.36c0-4.48-3.55-8.04-7.97-8.01-4.46,.03-7.89,3.54-7.89,8.06,0,4.4,3.66,8.01,8.03,7.93,4.39-.08,7.83-3.59,7.83-7.99Z"/><path class="d" d="M30.02,35.5c-3.21-.03-5.52-2.4-5.47-5.6,.05-3.1,2.56-5.52,5.68-5.48,3.04,.04,5.58,2.66,5.52,5.68-.07,3.11-2.52,5.43-5.73,5.4Z"/></g></g></g></svg>