<?xml version="1.0" encoding="UTF-8"?><svg xmlns="http://www.w3.org/2000/svg" viewBox="0 0 59.56 59.7"><defs><style>.e{fill:#fff;}</style></defs><g id="a"/><g id="b"><g id="c"><g id="d"><path class="e" d="M59.55,29.83c.39,15.6-12.52,29.83-29.65,29.86C12.83,59.73-.04,45.78,0,29.74,.04,13.45,13.61-.53,30.86,.02c16.02,.51,29.06,14.07,28.7,29.82Zm-29.78,12.33c4.85,0,9.7,0,14.55,0,1.81,0,3.2-1.29,3.2-3.05,.02-5.55,.01-11.1,0-16.64,0-.6-.05-.62-.59-.29-1.22,.76-2.44,1.52-3.66,2.28-3.96,2.47-7.93,4.92-11.86,7.43-1.14,.73-2.14,.78-3.23-.02-.59-.44-1.25-.79-1.88-1.18-4.51-2.82-9.02-5.64-13.54-8.45-.18-.11-.37-.36-.59-.24-.22,.12-.11,.41-.11,.63,0,5.36,0,10.73,0,16.09,0,2.15,1.3,3.45,3.46,3.45,4.75,0,9.49,0,14.24,0Zm17.21-20.75c-.07-.08-.09-.12-.13-.14-5.56-3.47-11.11-6.93-16.67-10.41-.29-.18-.51-.15-.78,.03-4.63,2.89-9.27,5.78-13.9,8.67-.93,.58-1.86,1.18-2.92,1.85H46.99Z"/></g></g></g></svg>