<svg xmlns="http://www.w3.org/2000/svg" viewBox="0 0 757.15 338.19">
  <path d="M315.89 9.21h-13.12c-.93 0-1.68-.75-1.68-1.68V1.68c0-.93.75-1.68 1.68-1.68h39.21c.93 0 1.68.75 1.68 1.68v5.85c0 .93-.75 1.68-1.68 1.68h-13.22c-.93 0-1.68.75-1.68 1.68v55.79c0 .93-.75 1.68-1.68 1.68h-6.14c-.93 0-1.68-.75-1.68-1.68V10.89c0-.93-.75-1.68-1.68-1.68ZM355.51 0h6.14c.93 0 1.68.75 1.68 1.68v26.51c0 .93.75 1.68 1.68 1.68h21.76c.93 0 1.68-.75 1.68-1.68V1.68c0-.93.75-1.68 1.68-1.68h6.14c.93 0 1.68.75 1.68 1.68v65c0 .93-.75 1.68-1.68 1.68h-6.14c-.93 0-1.68-.75-1.68-1.68v-26.8c0-.93-.75-1.68-1.68-1.68h-21.76c-.93 0-1.68.75-1.68 1.68v26.8c0 .93-.75 1.68-1.68 1.68h-6.14c-.93 0-1.68-.75-1.68-1.68v-65c0-.93.75-1.68 1.68-1.68ZM414.18 0h34.65c.93 0 1.68.75 1.68 1.68v5.85c0 .93-.75 1.68-1.68 1.68h-25.15c-.93 0-1.68.75-1.68 1.68v17.2c0 .93.75 1.68 1.68 1.68h17.39c.93 0 1.68.75 1.68 1.68v5.08c0 .93-.75 1.68-1.68 1.68h-17.39c-.93 0-1.68.75-1.68 1.68v17.59c0 .93.75 1.68 1.68 1.68h25.15c.93 0 1.68.75 1.68 1.68v5.85c0 .93-.75 1.68-1.68 1.68h-34.65c-.93 0-1.68-.75-1.68-1.68V1.68c0-.93.75-1.68 1.68-1.68ZM4 103.77h11.18c1.6 0 3.04.95 3.67 2.42l31.67 73.51c1.39 3.22 5.95 3.22 7.34 0l31.83-73.53a4.005 4.005 0 0 1 3.67-2.41h11.19c2.21 0 4 1.79 4 4v122.83c0 2.21-1.79 4-4 4H94.36c-2.21 0-4-1.79-4-4v-67.7c0-4.34-5.94-5.57-7.67-1.59l-20.98 48.25a3.996 3.996 0 0 1-3.67 2.4H50.3a4 4 0 0 1-3.67-2.41l-20.79-47.87c-1.73-3.98-7.67-2.74-7.67 1.59v67.32c0 2.21-1.79 4-4 4H4c-2.21 0-4-1.79-4-4V107.77c0-2.21 1.79-4 4-4ZM169.93 103.77h14.59c1.74 0 3.28 1.13 3.81 2.78l39.2 122.83c.82 2.58-1.1 5.22-3.81 5.22h-10.67c-1.76 0-3.32-1.16-3.83-2.84l-7.19-23.82a4 4 0 0 0-3.83-2.84h-42.7c-1.76 0-3.31 1.14-3.82 2.82l-7.35 23.86a4 4 0 0 1-3.82 2.82h-10.47c-2.72 0-4.64-2.65-3.8-5.23l39.9-122.83a3.996 3.996 0 0 1 3.8-2.76Zm25.26 80.41-14.18-47.66c-1.13-3.8-6.5-3.82-7.66-.03l-14.58 47.66c-.79 2.57 1.14 5.17 3.82 5.17h28.76c2.68 0 4.6-2.58 3.83-5.14ZM240.37 193.03h10.03c2.09 0 3.83 1.61 3.98 3.69 1.25 16.85 11.28 22.85 25.85 22.85s25.24-6.87 25.24-20.6-12.62-17.81-26.91-21.9c-18.74-5.57-40.45-11.13-40.45-38.79 0-23.57 15.22-36.93 41.2-36.93s41.11 12.85 42.73 38.24a4.006 4.006 0 0 1-4 4.26h-10.03c-2.09 0-3.81-1.61-3.98-3.69-1.24-15.35-10.42-21.92-24.72-21.92s-23.2 7.05-23.2 20.04c0 14.66 13.92 18.56 29.13 22.83 18.37 5.2 38.41 11.13 38.41 37.49 0 24.49-16.7 38.23-43.42 38.23s-42.24-13.07-43.85-39.54c-.14-2.3 1.69-4.26 4-4.26ZM342.77 190.99v-43.98c0-26.72 17.82-45.47 43.61-45.47s43.79 18.74 43.79 45.47v43.98c0 26.72-18.19 45.28-43.79 45.28s-43.61-18.56-43.61-45.28Zm43.61 27.84c12.81 0 25.42-8.17 25.42-27.09v-45.47c0-18-11.13-27.28-25.42-27.28-12.8 0-25.42 8.16-25.42 27.09v45.46c0 18 11.13 27.28 25.42 27.28ZM458.3 103.77h10.52c1.46 0 2.8.8 3.51 2.08l44.06 80.36c1.99 3.63 7.51 2.22 7.51-1.92v-76.52c0-2.21 1.79-4 4-4h10.37c2.21 0 4 1.79 4 4V230.6c0 2.21-1.79 4-4 4h-10.71c-1.46 0-2.8-.79-3.5-2.07L480 152.48c-1.99-3.62-7.5-2.21-7.5 1.93v76.2c0 2.21-1.79 4-4 4h-10.19c-2.21 0-4-1.79-4-4V107.77c0-2.21 1.79-4 4-4ZM570.1 107.77c0-2.21 1.79-4 4-4h35.53c26.54 0 43.61 16.33 43.61 45.65v3.71c0 19.65-9.27 32.61-23.69 38.34-2.34.93-3.18 3.82-1.78 5.91l20.75 30.99c1.78 2.66-.13 6.22-3.32 6.22h-11.29c-1.36 0-2.63-.69-3.37-1.84l-21.77-33.99c-.74-1.15-2-1.84-3.37-1.84h-13.11c-2.21 0-4 1.79-4 4v29.67c0 2.21-1.79 4-4 4H574.1c-2.21 0-4-1.79-4-4V107.77Zm37.49 71.71c15.59 0 27.65-7.79 27.65-26.54v-4.45c0-20.41-11.88-27.09-27.65-27.09h-15.3c-2.21 0-4 1.79-4 4v50.09c0 2.21 1.79 4 4 4h15.3ZM699.98 186.08l-37.42-76.55c-1.3-2.66.64-5.76 3.59-5.76h10.72c1.55 0 2.96.9 3.62 2.3l25.39 54.24c1.43 3.06 5.78 3.07 7.23.03L739 106.05a4.002 4.002 0 0 1 3.61-2.28h10.53c2.96 0 4.9 3.11 3.59 5.77l-37.75 76.53a4.03 4.03 0 0 0-.41 1.77v42.76c0 2.21-1.79 4-4 4h-10.19c-2.21 0-4-1.79-4-4v-42.77c0-.61-.14-1.21-.41-1.76ZM228.31 271.87c0-1.13.92-2.05 2.05-2.05h18.32c13.48 0 22.4 5.24 22.4 17.94v.97c0 6.37-2.25 10.61-6.26 13.26-1.27.84-1.23 2.67.07 3.47 4.34 2.67 6.76 6.99 6.76 13.43v.78c0 12.9-8.82 18.52-22.3 18.52h-19c-1.13 0-2.05-.92-2.05-2.05v-64.27Zm22.5 28.11c6.59 0 10.76-3.1 10.76-9.89v-1.36c0-7.76-5.53-9.7-13.19-9.7h-8.52c-1.13 0-2.05.92-2.05 2.05v16.85c0 1.13.92 2.05 2.05 2.05h10.95Zm-1.75 29.09c7.56 0 13.19-2.33 13.19-10.38v-1.26c0-7.18-5.24-9.89-12.22-9.89h-10.17c-1.13 0-2.05.92-2.05 2.05v17.44c0 1.13.92 2.05 2.05 2.05h9.2ZM300.78 269.82h7.69c.89 0 1.68.58 1.95 1.42l20.51 64.27c.42 1.32-.56 2.67-1.95 2.67h-5.67c-.9 0-1.7-.59-1.96-1.45l-3.78-12.51a2.05 2.05 0 0 0-1.96-1.45h-22.38c-.9 0-1.69.59-1.96 1.44l-3.86 12.53a2.04 2.04 0 0 1-1.96 1.44h-5.57a2.05 2.05 0 0 1-1.95-2.68l20.88-64.27c.27-.84 1.06-1.41 1.95-1.41Zm13.25 42.07-7.47-25.1c-.58-1.94-3.32-1.95-3.92-.02l-7.68 25.1c-.4 1.31.58 2.64 1.96 2.64h15.15c1.37 0 2.35-1.32 1.96-2.63ZM342.17 269.82h5.41c1.13 0 2.05.92 2.05 2.05v25.19c0 1.13.92 2.05 2.05 2.05h3.13c.7 0 1.35-.36 1.73-.95l17.32-27.38c.37-.59 1.03-.95 1.73-.95h6.28c1.62 0 2.6 1.79 1.72 3.15l-18.91 29.51a2.04 2.04 0 0 0-.01 2.19l18.98 30.39c.85 1.36-.13 3.13-1.74 3.13h-6.31c-.71 0-1.37-.37-1.75-.98l-17.32-28.39c-.37-.61-1.03-.98-1.75-.98h-3.11c-1.13 0-2.05.92-2.05 2.05v26.26c0 1.13-.92 2.05-2.05 2.05h-5.41c-1.13 0-2.05-.92-2.05-2.05v-64.27c0-1.13.92-2.05 2.05-2.05ZM397.35 269.82h33.92c1.13 0 2.05.92 2.05 2.05v5.12c0 1.13-.92 2.05-2.05 2.05h-24.42c-1.13 0-2.05.92-2.05 2.05v16.47c0 1.13.92 2.05 2.05 2.05h16.66c1.13 0 2.05.92 2.05 2.05V306c0 1.13-.92 2.05-2.05 2.05h-16.66c-1.13 0-2.05.92-2.05 2.05v16.85c0 1.13.92 2.05 2.05 2.05h24.42c1.13 0 2.05.92 2.05 2.05v5.12c0 1.13-.92 2.05-2.05 2.05h-33.92c-1.13 0-2.05-.92-2.05-2.05V271.9c0-1.13.92-2.05 2.05-2.05ZM445.44 271.87c0-1.13.92-2.05 2.05-2.05h18.61c13.87 0 22.79 8.53 22.79 23.85v1.94c0 10.29-4.86 17.07-12.42 20.05-1.2.48-1.65 1.95-.93 3.03L486.46 335c.91 1.36-.06 3.18-1.7 3.18h-6.01c-.7 0-1.35-.36-1.72-.94l-11.4-17.8c-.38-.59-1.03-.94-1.72-.94h-6.92c-1.13 0-2.05.92-2.05 2.05v15.59c0 1.13-.92 2.05-2.05 2.05h-5.41c-1.13 0-2.05-.92-2.05-2.05v-64.27Zm19.59 37.52c8.15 0 14.45-4.07 14.45-13.87v-2.33c0-10.67-6.21-14.16-14.45-14.16h-8.04c-1.13 0-2.05.92-2.05 2.05v26.26c0 1.13.92 2.05 2.05 2.05h8.04ZM513.3 312.84l-19.59-40.07c-.66-1.36.33-2.94 1.84-2.94h5.7c.79 0 1.52.46 1.85 1.18l13.32 28.45c.73 1.57 2.96 1.57 3.7.01l13.58-28.48c.34-.71 1.06-1.17 1.85-1.17h5.6c1.52 0 2.51 1.59 1.83 2.95l-19.76 40.06c-.14.28-.21.59-.21.91v22.4c0 1.13-.92 2.05-2.05 2.05h-5.41c-1.13 0-2.05-.92-2.05-2.05v-22.4c0-.31-.07-.62-.21-.9Z"/>
  <path d="M388.35 133.78c-1.82 1.56-3.67 3.07-5.56 4.54l1.01-.78c-3.4 2.62-6.91 5.09-10.52 7.4-2.2 1.41-3.3 4.51-1.79 6.84 1.42 2.2 4.48 3.3 6.84 1.79 5.99-3.82 11.71-8.1 17.1-12.72 1.99-1.71 1.89-5.34 0-7.07-2.12-1.95-4.95-1.82-7.07 0ZM393.18 157.71c-6.77 4.77-13.26 9.96-19.37 15.56-1.93 1.77-1.93 5.3 0 7.07 2.07 1.9 5.01 1.89 7.07 0 2.85-2.62 5.79-5.15 8.8-7.58.71-.57 1.42-1.14 2.14-1.7.13-.1.92-.71.3-.24-.57.44.06-.05.17-.13.36-.28.72-.55 1.09-.83 1.59-1.2 3.21-2.37 4.84-3.52 1.09-.76 1.93-1.67 2.3-2.99.33-1.2.18-2.79-.5-3.85-1.37-2.12-4.55-3.4-6.84-1.79ZM395.02 185.9c-5.64 3.94-11.11 8.13-16.4 12.53-.93.78-1.46 2.37-1.46 3.54 0 1.23.54 2.69 1.46 3.54s2.2 1.52 3.54 1.46 2.47-.57 3.54-1.46c2.18-1.82 4.39-3.59 6.63-5.33l-1.01.78c2.87-2.21 5.78-4.35 8.75-6.42 1.09-.76 1.94-1.68 2.3-2.99.33-1.2.18-2.79-.5-3.85-1.37-2.13-4.55-3.4-6.84-1.79Z"/>
</svg>