<svg xmlns="http://www.w3.org/2000/svg" viewBox="0 0 58.39 75.12">
  <defs>
    <style>
      .f{stroke:#000;stroke-miterlimit:10;fill:none;stroke-width:4px}
    </style>
  </defs>
  <g id="b">
    <g id="c">
      <path d="m8.94 2.29 1.13-.68.1-.03c1.67-.77 3.37-.92 5.06-.36.51.17.94.24 1.41-.1.02-.02.05-.02.07-.03 2.43-1.09 4.72-.92 6.86.45.66.42 1.18 1 1.64 1.62l.38.64c.06.12.12.24.17.36.98 2.46.64 4.79-1.09 6.97-.19.24-.21.4-.06.64 1.34 2.21 2.67 4.43 3.99 6.64.11.18.21.36.29.55.23.5.03 1.12-.47 1.42-3.85 2.31-7.7 4.62-11.55 6.94-.5.3-1.14.19-1.47-.25-.12-.16-.23-.32-.33-.5-1.34-2.23-2.68-4.46-4.01-6.69-.14-.23-.28-.29-.56-.23-3.12.68-6.34-.85-7.54-3.8-1.2-2.94 0-6.51 2.84-8.27.18-.11.27-.24.29-.45.14-1.27.62-2.42 1.42-3.46.41-.53.91-.98 1.44-1.4Zm10.11 15.55c1.43-.86 2.87-1.72 4.3-2.58.28-.17.28-.19.12-.45-.56-.93-1.12-1.87-1.68-2.8-.38-.63-.25-1.25.35-1.73 1.81-1.45 2.21-4.09.87-5.82-1.44-1.87-4.03-2.09-5.83-.88-.2.14-.39.3-.61.41-.48.24-.93.18-1.37-.08-2.02-1.16-4.65-.48-5.96 1.52-.51.79-.74 1.64-.7 2.55.02.63-.25 1.04-.84 1.32-.36.17-.7.36-1.01.61-1.85 1.49-2.14 3.88-1.12 5.54 1.08 1.74 3.36 2.43 5.34 1.57.69-.3 1.29-.12 1.66.48.57.94 1.13 1.88 1.69 2.82.17.28.18.28.48.11 1.43-.86 2.87-1.72 4.3-2.58Zm1.26 2.06-4.35 2.61c-.2.12-.25.22-.13.42.29.46.58.93.85 1.41.11.19.23.2.42.09 2.89-1.74 5.78-3.47 8.67-5.21.21-.13.22-.24.11-.43-.28-.44-.54-.9-.81-1.34-.18-.29-.18-.29-.5-.1-1.42.85-2.84 1.7-4.26 2.56Z" style="stroke:#000;stroke-miterlimit:10;stroke-width:.75px" id="d"/>
      <path class="f" d="M2.1 73.12h54.12s-1.69-21-28.17-21c-24.95 0-25.95 21-25.95 21ZM42.57 33.77c0 3.81-1.59 7.26-4.15 9.7a13.38 13.38 0 0 1-9.27 3.72c-7.41 0-13.41-6.01-13.41-13.41s6.01-13.41 13.41-13.41 13.41 6.01 13.41 13.41Z"/>
    </g>
  </g>
</svg>