<?xml version="1.0" encoding="UTF-8"?><svg xmlns="http://www.w3.org/2000/svg" viewBox="0 0 23.59 30.41"><defs><style>.e{fill:#fff;}</style></defs><g id="a"/><g id="b"><g id="c"><g id="d"><g><path class="e" d="M11.78,19.94c-1.63-.02-3.05-.56-4.24-1.67-1.09-1.01-1.74-2.26-1.94-3.74-.16-1.14,0-2.25,.46-3.31,.03-.08,.05-.14,0-.23-.55-.9-1.1-1.81-1.64-2.71-.07-.11-.13-.15-.26-.13-.98,.14-1.85-.1-2.55-.82-.76-.77-.96-1.99-.51-3.03,.24-.56,.62-1,1.12-1.33,.06-.04,.09-.07,.1-.15,.08-.71,.41-1.31,.94-1.78C3.89,.47,4.63,.16,5.5,.21c.26,.01,.5,.07,.74,.15,.14,.05,.27,.03,.41-.03,1.36-.68,2.87-.24,3.65,.84,.67,.93,.68,2.24-.02,3.2-.17,.24-.16,.39-.01,.62,.49,.78,.95,1.57,1.42,2.35,.05,.09,.11,.13,.22,.13,3.01,.05,5.57,2.26,6.03,5.26,.3,1.93-.21,3.64-1.49,5.11-1.04,1.19-2.37,1.86-3.93,2.07-.25,.03-.49,.05-.74,.04Zm4.58-6.22c0-2.54-2.03-4.59-4.56-4.6-2.52,0-4.58,2.04-4.59,4.57,0,2.54,2.03,4.59,4.57,4.6,2.53,0,4.58-2.03,4.58-4.56ZM2.21,5.27c0,.92,.63,1.56,1.41,1.58,.27,0,.52-.05,.77-.14,.36-.14,.65-.03,.86,.29,.06,.09,.12,.17,.16,.26,.06,.14,.14,.14,.26,.06,.19-.13,.39-.24,.59-.35,.85-.51,1.7-1.02,2.55-1.52,.09-.06,.11-.1,.05-.19-.08-.12-.15-.24-.22-.36-.14-.27-.1-.56,.12-.78,.05-.06,.11-.11,.17-.16,.56-.49,.69-1.37,.29-1.97-.47-.7-1.48-.88-2.19-.36-.34,.25-.66,.28-1.04,.09-1.05-.54-2.35,.26-2.34,1.45,0,.38-.15,.63-.5,.8-.59,.29-.91,.78-.94,1.32Zm8.09,2.36s-.02-.05-.04-.07c-.2-.34-.41-.67-.6-1.02-.06-.11-.11-.1-.2-.04-.47,.29-.94,.57-1.42,.85-.6,.36-1.2,.71-1.79,1.07-.07,.04-.13,.07-.07,.18,.21,.34,.41,.68,.61,1.03,.05,.08,.1,.09,.18,.04,.22-.14,.45-.27,.68-.41,.86-.51,1.71-1.02,2.57-1.53,.03-.02,.09-.03,.09-.09Z"/><path class="e" d="M11.79,30.41c-3.82,0-7.64,0-11.46,0-.05,0-.1,0-.15,0-.19,0-.19,0-.19-.19,.01-1.01,.18-1.98,.5-2.94,.42-1.26,1.03-2.42,1.9-3.43,.76-.9,1.67-1.61,2.7-2.17,1.26-.68,2.62-1.08,4.03-1.27,.94-.13,1.89-.16,2.84-.13,1.81,.05,3.58,.34,5.25,1.05,3.14,1.33,5.15,3.65,6.07,6.93,.18,.64,.26,1.3,.29,1.96,.01,.19,0,.19-.19,.19-3.87,0-7.74,0-11.61,0Zm-.03-1.66h9.62s.08,0,.12,0c.2,0,.2,0,.15-.19-.06-.21-.13-.43-.2-.64-.88-2.37-2.48-4.04-4.8-5.03-1.26-.54-2.58-.8-3.94-.9-.83-.06-1.65-.07-2.48-.01-.84,.06-1.67,.19-2.49,.42-2.44,.69-4.23,2.15-5.3,4.46-.26,.56-.45,1.15-.59,1.76-.03,.12,0,.15,.12,.14,.04,0,.09,0,.13,0,3.22,0,6.44,0,9.66,0Z"/></g></g></g></g></svg>