<?xml version="1.0" encoding="UTF-8"?><svg xmlns="http://www.w3.org/2000/svg" viewBox="0 0 22.26 22.88"><defs><style>.e{fill:#fff;}</style></defs><g id="a"/><g id="b"><g id="c"><g id="d"><g><path class="e" d="M10.52,0c5.01-.05,9.45,3.51,10.42,8.46,.65,3.31-.13,6.3-2.27,8.91-.14,.17-.16,.28,0,.46,1.08,1.15,2.15,2.31,3.23,3.47,.22,.24,.4,.49,.35,.84-.05,.35-.25,.6-.59,.7-.33,.1-.64,.03-.89-.23-.61-.66-1.23-1.31-1.84-1.97-.51-.55-1.02-1.1-1.53-1.65-.14-.15-.23-.14-.39-.02-1.6,1.22-3.39,1.95-5.4,2.13-3.08,.28-5.8-.6-8.11-2.66C1.52,16.65,.35,14.41,.07,11.75-.29,8.34,.77,5.39,3.21,2.98,4.94,1.28,7.05,.3,9.49,.05c.37-.04,.73-.04,1.03-.05Zm8.91,10.57c.06-4.75-3.87-8.86-8.84-8.87-4.8,0-8.86,3.84-8.88,8.84-.02,4.91,3.95,8.88,8.85,8.89,4.95,.01,8.92-4.07,8.87-8.87Z"/><path class="e" d="M6.23,10.57c-.05-2.16,1.68-4.36,4.35-4.37,2.54,0,4.37,2.04,4.37,4.36,0,2.36-1.87,4.38-4.36,4.37-2.67,0-4.41-2.2-4.36-4.36Zm6.99,.03c0-1.49-1.13-2.66-2.6-2.67-1.47-.01-2.66,1.14-2.67,2.58-.01,1.5,1.13,2.68,2.61,2.7,1.49,.01,2.66-1.13,2.67-2.6Z"/></g></g></g></g></svg>