<svg xmlns="http://www.w3.org/2000/svg" viewBox="0 0 756.79 135.47">
  <path d="M4.6 2.41h10.19c1.84 0 3.5 1.09 4.23 2.78l30.96 71.87c1.6 3.7 6.85 3.71 8.45 0L89.54 5.19a4.606 4.606 0 0 1 4.22-2.77h10.19a4.6 4.6 0 0 1 4.6 4.6v121.63a4.6 4.6 0 0 1-4.6 4.6h-8.98a4.6 4.6 0 0 1-4.6-4.6V64.43c0-4.99-6.83-6.41-8.82-1.83l-19.67 45.24a4.606 4.606 0 0 1-4.22 2.77h-6.95c-1.83 0-3.49-1.09-4.22-2.77L27.01 62.98c-1.99-4.58-8.82-3.16-8.82 1.83v63.82a4.6 4.6 0 0 1-4.6 4.6H4.6a4.6 4.6 0 0 1-4.6-4.6V7.01a4.6 4.6 0 0 1 4.6-4.6ZM170.36 2.41h13.71c2 0 3.77 1.29 4.38 3.2l38.82 121.63c.95 2.97-1.27 6-4.38 6h-9.4a4.59 4.59 0 0 1-4.4-3.27l-6.93-22.96a4.608 4.608 0 0 0-4.4-3.27h-41.81c-2.02 0-3.8 1.32-4.4 3.25L144.46 130a4.603 4.603 0 0 1-4.4 3.25h-9.2c-3.13 0-5.34-3.05-4.38-6.02L165.99 5.59c.62-1.9 2.38-3.18 4.38-3.18Zm24.59 79.64-13.38-44.98c-1.3-4.37-7.48-4.39-8.81-.03L159 82.02c-.9 2.96 1.31 5.95 4.4 5.95h27.14c3.08 0 5.29-2.96 4.41-5.91ZM241.01 91.67h8.83c2.4 0 4.37 1.85 4.58 4.24 1.42 16.42 11.39 22.29 25.8 22.29s25.24-6.87 25.24-20.6-12.62-17.81-26.91-21.9c-18.74-5.57-40.45-11.13-40.45-38.79 0-23.57 15.22-36.93 41.2-36.93 24.61 0 40.84 12.64 42.69 37.6.2 2.65-1.94 4.9-4.59 4.9h-8.83c-2.4 0-4.36-1.85-4.59-4.24-1.41-14.96-10.54-21.37-24.68-21.37s-23.2 7.05-23.2 20.04c0 14.66 13.92 18.56 29.13 22.83 18.37 5.2 38.41 11.13 38.41 37.49 0 24.49-16.7 38.23-43.42 38.23-25.19 0-41.97-12.86-43.81-38.9-.19-2.65 1.94-4.9 4.6-4.9ZM342.77 89.63V45.65c0-26.72 17.81-45.46 43.61-45.46s43.79 18.74 43.79 45.47v43.98c0 26.72-18.19 45.28-43.79 45.28s-43.61-18.56-43.61-45.28Zm43.61 27.84c12.81 0 25.42-8.17 25.42-27.09V44.91c0-18-11.13-27.28-25.42-27.28-12.8 0-25.42 8.16-25.42 27.09v45.46c0 18 11.13 27.28 25.42 27.28ZM458.9 2.41h9.56c1.68 0 3.23.92 4.03 2.39l42.76 77.99c2.29 4.17 8.63 2.55 8.63-2.21V7.01a4.6 4.6 0 0 1 4.6-4.6h9.17a4.6 4.6 0 0 1 4.6 4.6v121.63a4.6 4.6 0 0 1-4.6 4.6h-9.75c-1.68 0-3.22-.91-4.03-2.38l-42.76-77.69c-2.29-4.17-8.63-2.54-8.63 2.22v73.25a4.6 4.6 0 0 1-4.6 4.6h-8.98a4.6 4.6 0 0 1-4.6-4.6V7.01a4.6 4.6 0 0 1 4.6-4.6ZM570.1 7.01a4.6 4.6 0 0 1 4.6-4.6h34.93c26.54 0 43.61 16.33 43.61 45.65v3.71c0 19.34-8.98 32.2-23.02 38.06-2.67 1.12-3.67 4.39-2.05 6.8l19.72 29.45c2.05 3.06-.14 7.16-3.82 7.16h-9.83c-1.57 0-3.03-.8-3.87-2.12l-21.41-33.43a4.611 4.611 0 0 0-3.87-2.12h-12.18a4.6 4.6 0 0 0-4.6 4.6v28.47a4.6 4.6 0 0 1-4.6 4.6h-8.98a4.6 4.6 0 0 1-4.6-4.6V7.01Zm37.49 71.11c15.59 0 27.65-7.79 27.65-26.54v-4.45c0-20.41-11.88-27.09-27.65-27.09h-14.7a4.6 4.6 0 0 0-4.6 4.6v48.88a4.6 4.6 0 0 0 4.6 4.6h14.7ZM699.91 84.59 662.97 9.03c-1.49-3.06.73-6.62 4.13-6.62h9.38c1.79 0 3.41 1.03 4.17 2.65l24.69 52.74c1.65 3.52 6.65 3.54 8.32.03l25.18-52.8c.76-1.6 2.38-2.62 4.15-2.62h9.18c3.41 0 5.63 3.58 4.13 6.64l-37.26 75.54c-.31.63-.47 1.33-.47 2.04v42.02a4.6 4.6 0 0 1-4.6 4.6h-8.99a4.6 4.6 0 0 1-4.6-4.6V86.62c0-.7-.16-1.39-.47-2.02Z"/>
  <path d="M388.35 32.42c-1.82 1.56-3.67 3.07-5.56 4.54l1.01-.78c-3.4 2.62-6.91 5.09-10.52 7.4-2.2 1.41-3.3 4.51-1.79 6.84 1.42 2.2 4.48 3.3 6.84 1.79 5.99-3.82 11.71-8.1 17.1-12.72 1.99-1.71 1.89-5.34 0-7.07-2.12-1.95-4.95-1.82-7.07 0ZM393.18 56.35c-6.77 4.77-13.26 9.96-19.37 15.56-1.93 1.77-1.93 5.3 0 7.07 2.07 1.9 5.01 1.89 7.07 0 2.85-2.62 5.79-5.15 8.8-7.58.71-.57 1.42-1.14 2.14-1.7.13-.1.92-.71.3-.24-.57.44.06-.05.17-.13.36-.28.72-.55 1.09-.83 1.59-1.2 3.21-2.37 4.84-3.52 1.09-.76 1.93-1.67 2.3-2.99.33-1.2.18-2.79-.5-3.85-1.37-2.12-4.55-3.4-6.84-1.79ZM395.02 84.54c-5.64 3.94-11.11 8.13-16.4 12.53-.93.78-1.46 2.37-1.46 3.54 0 1.23.54 2.69 1.46 3.54s2.2 1.52 3.54 1.46 2.47-.57 3.54-1.46c2.18-1.82 4.39-3.59 6.63-5.33l-1.01.78c2.87-2.21 5.78-4.35 8.75-6.42 1.09-.76 1.94-1.68 2.3-2.99.33-1.2.18-2.79-.5-3.85-1.37-2.13-4.55-3.4-6.84-1.79Z"/>
</svg>