<svg xmlns="http://www.w3.org/2000/svg" viewBox="0 0 924.32 70.79">
  <path d="M13.69 10.47H2.79C1.25 10.47 0 9.22 0 7.68V4.05c0-1.54 1.25-2.79 2.79-2.79h36.99c1.54 0 2.79 1.25 2.79 2.79v3.63c0 1.54-1.25 2.79-2.79 2.79h-11c-1.54 0-2.79 1.25-2.79 2.79v53.57c0 1.54-1.25 2.79-2.79 2.79h-3.92c-1.54 0-2.79-1.25-2.79-2.79V13.26c0-1.54-1.25-2.79-2.79-2.79ZM55.54 1.26h3.92c1.54 0 2.79 1.25 2.79 2.79v24.29c0 1.54 1.25 2.79 2.79 2.79h19.53c1.54 0 2.79-1.25 2.79-2.79V4.05c0-1.54 1.25-2.79 2.79-2.79h3.92c1.54 0 2.79 1.25 2.79 2.79v62.78c0 1.54-1.25 2.79-2.79 2.79h-3.92c-1.54 0-2.79-1.25-2.79-2.79V42.25c0-1.54-1.25-2.79-2.79-2.79H65.04c-1.54 0-2.79 1.25-2.79 2.79v24.58c0 1.54-1.25 2.79-2.79 2.79h-3.92c-1.54 0-2.79-1.25-2.79-2.79V4.05c0-1.54 1.25-2.79 2.79-2.79ZM114.21 1.26h32.43c1.54 0 2.79 1.25 2.79 2.79v3.63c0 1.54-1.25 2.79-2.79 2.79h-22.93c-1.54 0-2.79 1.25-2.79 2.79v14.98c0 1.54 1.25 2.79 2.79 2.79h15.17c1.54 0 2.79 1.25 2.79 2.79v2.85c0 1.54-1.25 2.79-2.79 2.79h-15.17c-1.54 0-2.79 1.25-2.79 2.79v15.36c0 1.54 1.25 2.79 2.79 2.79h22.93c1.54 0 2.79 1.25 2.79 2.79v3.63c0 1.54-1.25 2.79-2.79 2.79h-32.43c-1.54 0-2.79-1.25-2.79-2.79V4.05c0-1.54 1.25-2.79 2.79-2.79ZM185.65 1.26h4.75c1.1 0 2.09.65 2.53 1.66l15.77 36.6c.95 2.22 4.1 2.22 5.05 0l15.84-36.6a2.756 2.756 0 0 1 2.53-1.66h4.75c1.52 0 2.75 1.23 2.75 2.75v62.86c0 1.52-1.23 2.75-2.75 2.75h-4c-1.52 0-2.75-1.23-2.75-2.75V35.34c0-2.99-4.09-3.84-5.28-1.1l-9.52 21.89a2.752 2.752 0 0 1-2.52 1.66h-3.18c-1.1 0-2.09-.65-2.52-1.66l-9.42-21.69c-1.19-2.74-5.28-1.89-5.28 1.1v31.32c0 1.52-1.23 2.75-2.75 2.75h-4c-1.52 0-2.75-1.23-2.75-2.75V4.01c0-1.52 1.23-2.75 2.75-2.75ZM272.17 1.26h6.66c1.2 0 2.26.77 2.62 1.92l20.06 62.86a2.75 2.75 0 0 1-2.62 3.59h-4.18c-1.21 0-2.28-.8-2.64-1.96l-3.47-11.5a2.757 2.757 0 0 0-2.64-1.96h-21.33c-1.21 0-2.27.79-2.63 1.94l-3.55 11.53a2.758 2.758 0 0 1-2.63 1.94h-4.07c-1.87 0-3.2-1.82-2.62-3.6l20.42-62.86c.37-1.13 1.43-1.9 2.62-1.9Zm12.46 41.17-6.53-21.95c-.78-2.61-4.47-2.63-5.27-.02l-6.71 21.95c-.54 1.77.78 3.56 2.63 3.56h13.24c1.84 0 3.16-1.77 2.64-3.54ZM309.21 47.9h3.92c1.41 0 2.6 1.07 2.73 2.47.83 8.39 6.01 11.39 13.46 11.39s13.19-3.59 13.19-10.76-6.59-9.31-14.06-11.44c-9.79-2.91-21.14-5.82-21.14-20.27 0-12.32 7.95-19.3 21.53-19.3 12.7 0 21.14 6.44 22.27 19.18.14 1.62-1.12 3.03-2.74 3.03h-3.92c-1.39 0-2.58-1.04-2.73-2.42-.8-7.67-5.55-10.96-12.87-10.96s-12.12 3.68-12.12 10.47c0 7.66 7.27 9.7 15.22 11.93 9.6 2.72 20.07 5.82 20.07 19.59 0 12.8-8.73 19.98-22.69 19.98-13.01 0-21.73-6.57-22.86-19.86-.14-1.62 1.12-3.02 2.74-3.02ZM362.01 46.84V23.85c0-13.96 9.31-23.76 22.79-23.76s22.88 9.79 22.88 23.76v22.98c0 13.96-9.5 23.66-22.88 23.66s-22.79-9.7-22.79-23.66Zm22.79 14.55c6.69 0 13.29-4.27 13.29-14.16V23.47c0-9.41-5.82-14.25-13.29-14.25-6.69 0-13.29 4.27-13.29 14.16v23.76c0 9.41 5.82 14.25 13.29 14.25ZM423.04 1.26h4.44c1.01 0 1.93.55 2.41 1.43l21.59 39.38c1.37 2.5 5.17 1.53 5.17-1.32V4.01c0-1.52 1.23-2.75 2.75-2.75h4.09c1.52 0 2.75 1.23 2.75 2.75v62.86c0 1.52-1.23 2.75-2.75 2.75h-4.54c-1 0-1.93-.55-2.41-1.43l-21.59-39.23c-1.37-2.49-5.16-1.52-5.16 1.33v36.57c0 1.52-1.23 2.75-2.75 2.75h-4c-1.52 0-2.75-1.23-2.75-2.75V4.01c0-1.52 1.23-2.75 2.75-2.75ZM480.8 4.01c0-1.52 1.23-2.75 2.75-2.75h17.9c13.87 0 22.79 8.53 22.79 23.85v1.94c0 9.93-4.53 16.59-11.64 19.72-1.58.7-2.2 2.62-1.24 4.06l9.71 14.51c1.22 1.83-.09 4.28-2.29 4.28h-4.3c-.94 0-1.81-.48-2.32-1.27L501.18 51.2a2.761 2.761 0 0 0-2.32-1.27h-5.83c-1.52 0-2.75 1.23-2.75 2.75v14.18c0 1.52-1.23 2.75-2.75 2.75h-4c-1.52 0-2.75-1.23-2.75-2.75V4.01Zm19.59 36.81c8.15 0 14.45-4.07 14.45-13.87v-2.33c0-10.67-6.21-14.16-14.45-14.16h-7.33c-1.52 0-2.75 1.23-2.75 2.75v24.85c0 1.52 1.23 2.75 2.75 2.75h7.33ZM548.6 44.13 529.58 5.22c-.89-1.83.44-3.96 2.47-3.96h4.12c1.07 0 2.04.62 2.49 1.59l12.5 26.69c.99 2.11 3.98 2.12 4.98.02l12.74-26.73c.46-.96 1.42-1.57 2.48-1.57h4.02c2.04 0 3.37 2.14 2.47 3.97l-19.19 38.9c-.19.38-.28.8-.28 1.22v21.53c0 1.52-1.23 2.75-2.75 2.75h-4c-1.52 0-2.75-1.23-2.75-2.75V45.35c0-.42-.1-.83-.28-1.21ZM609.87 4.04a2.78 2.78 0 0 1 2.78-2.78h17.59c13.48 0 22.4 5.24 22.4 17.94v.97c0 5.96-1.97 10.06-5.51 12.73-1.53 1.16-1.46 3.41.12 4.52 3.85 2.7 5.97 6.88 5.97 12.91v.78c0 12.9-8.82 18.52-22.3 18.52h-18.27a2.78 2.78 0 0 1-2.78-2.78V4.04Zm22.5 27.38c6.59 0 10.76-3.1 10.76-9.89v-1.36c0-7.76-5.53-9.7-13.19-9.7h-7.79a2.78 2.78 0 0 0-2.78 2.78v15.39a2.78 2.78 0 0 0 2.78 2.78h10.22Zm-1.75 29.09c7.56 0 13.19-2.33 13.19-10.38v-1.26c0-7.18-5.24-9.89-12.22-9.89h-9.44a2.78 2.78 0 0 0-2.78 2.78v15.97a2.78 2.78 0 0 0 2.78 2.78h8.47ZM682.87 1.26h6.62c1.21 0 2.28.78 2.64 1.93L712.18 66c.57 1.79-.76 3.62-2.64 3.62h-4.13c-1.22 0-2.3-.8-2.66-1.97l-3.46-11.47a2.77 2.77 0 0 0-2.66-1.97h-21.29c-1.22 0-2.29.79-2.65 1.96l-3.54 11.5a2.779 2.779 0 0 1-2.65 1.96h-4.02c-1.89 0-3.22-1.84-2.64-3.63l20.4-62.81a2.783 2.783 0 0 1 2.64-1.92Zm12.44 41.14-6.5-21.84c-.78-2.64-4.51-2.65-5.32-.02l-6.68 21.84c-.55 1.78.79 3.59 2.65 3.59h13.18c1.86 0 3.19-1.79 2.66-3.57ZM724.46 1.26h3.95a2.78 2.78 0 0 1 2.78 2.78v23.73a2.78 2.78 0 0 0 2.78 2.78h2c.95 0 1.84-.49 2.35-1.29l16.89-26.7c.51-.8 1.39-1.29 2.35-1.29h4.55c2.19 0 3.52 2.43 2.34 4.27l-17.94 27.99c-.58.9-.59 2.06-.02 2.97l18.04 28.88c1.16 1.85-.17 4.25-2.35 4.25h-4.59c-.97 0-1.87-.5-2.37-1.33l-16.9-27.69a2.76 2.76 0 0 0-2.37-1.33h-1.97a2.78 2.78 0 0 0-2.78 2.78v24.8a2.78 2.78 0 0 1-2.78 2.78h-3.95a2.78 2.78 0 0 1-2.78-2.78V4.04a2.78 2.78 0 0 1 2.78-2.78ZM779.64 1.26h32.46a2.78 2.78 0 0 1 2.78 2.78V7.7a2.78 2.78 0 0 1-2.78 2.78h-22.96a2.78 2.78 0 0 0-2.78 2.78v15.01a2.78 2.78 0 0 0 2.78 2.78h15.2a2.78 2.78 0 0 1 2.78 2.78v2.88a2.78 2.78 0 0 1-2.78 2.78h-15.2a2.78 2.78 0 0 0-2.78 2.78v15.39a2.78 2.78 0 0 0 2.78 2.78h22.96a2.78 2.78 0 0 1 2.78 2.78v3.66a2.78 2.78 0 0 1-2.78 2.78h-32.46a2.78 2.78 0 0 1-2.78-2.78V4.04a2.78 2.78 0 0 1 2.78-2.78ZM827 4.04a2.78 2.78 0 0 1 2.78-2.78h17.88c13.87 0 22.79 8.53 22.79 23.85v1.94c0 9.93-4.53 16.59-11.64 19.72-1.58.7-2.2 2.62-1.24 4.06l9.69 14.47c1.24 1.84-.09 4.32-2.31 4.32h-4.24c-.95 0-1.83-.48-2.34-1.28L847.4 51.21c-.51-.8-1.39-1.28-2.34-1.28h-5.79a2.78 2.78 0 0 0-2.78 2.78v14.13a2.78 2.78 0 0 1-2.78 2.78h-3.95a2.78 2.78 0 0 1-2.78-2.78V4.04Zm19.59 36.79c8.15 0 14.45-4.07 14.45-13.87v-2.33c0-10.67-6.21-14.16-14.45-14.16h-7.31a2.78 2.78 0 0 0-2.78 2.78v24.8a2.78 2.78 0 0 0 2.78 2.78h7.31ZM894.79 44.13l-19-38.87c-.9-1.84.44-4 2.49-4h4.07c1.08 0 2.06.62 2.51 1.6l12.47 26.63c.99 2.12 4.01 2.13 5.02.02l12.72-26.67c.46-.97 1.44-1.58 2.51-1.58h3.96c2.06 0 3.4 2.16 2.49 4l-19.17 38.86c-.19.38-.29.8-.29 1.23v21.5a2.78 2.78 0 0 1-2.78 2.78h-3.95a2.78 2.78 0 0 1-2.78-2.78v-21.5c0-.42-.1-.84-.28-1.22Z"/>
  <path d="M385.9 17.02c-.65.56-1.31 1.11-1.99 1.65-.16.13-.33.26-.49.39-.08.06-.16.13-.25.19-.26.2.4-.3.13-.1-.35.27-.7.54-1.06.8-1.38 1.02-2.8 2-4.25 2.92-1.1.7-1.65 2.26-.9 3.42.71 1.1 2.24 1.65 3.42.9a78.86 78.86 0 0 0 8.91-6.63c1-.85.94-2.67 0-3.54-1.06-.97-2.47-.91-3.54 0ZM388.41 29.54a102.13 102.13 0 0 0-10.1 8.11c-.97.89-.97 2.65 0 3.54 1.03.95 2.5.95 3.54 0 1.49-1.37 3.02-2.69 4.6-3.96a48.554 48.554 0 0 1 1.29-1.02c-.27.21.05-.04.1-.08.19-.14.38-.29.57-.43.83-.63 1.68-1.24 2.53-1.84.54-.38.97-.84 1.15-1.49.16-.6.09-1.4-.25-1.93-.68-1.06-2.28-1.7-3.42-.9ZM389.36 44.27c-2.94 2.05-5.79 4.23-8.55 6.53-.47.39-.73 1.19-.73 1.77 0 .61.27 1.35.73 1.77s1.1.76 1.77.73 1.23-.29 1.77-.73c1.14-.95 2.29-1.88 3.47-2.78l-.51.39c1.5-1.15 3.02-2.27 4.57-3.36.54-.38.97-.84 1.15-1.49.16-.6.09-1.4-.25-1.93-.69-1.06-2.27-1.7-3.42-.9Z"/>
</svg>