<?xml version="1.0" encoding="UTF-8"?><svg xmlns="http://www.w3.org/2000/svg" viewBox="0 0 60.24 60.03"><defs><style>.d{fill:#fff;}</style></defs><g id="a"/><g id="b"><g id="c"><g><path class="d" d="M30.02,60.03C13.38,60-.02,46.62,0,30.06,.02,13.41,13.61-.05,30.37,0c16.23,.05,29.92,13.73,29.88,29.87-.04,16.8-13.47,30.19-30.23,30.16ZM10.54,30.5c-.18,2.11,.13,4.58,.38,7.04,.35,3.32,1.83,5.5,5.41,5.81,3.85,.34,7.71,.2,11.56,.4,5.46,.29,10.93-.02,16.38-.48,3.01-.26,4.29-1.56,4.8-4.53,.94-5.48,.92-11.01,.18-16.51-.47-3.52-2.06-5.13-4.84-5.43-1.54-.17-3.1-.34-4.65-.34-7.77-.03-15.54-.3-23.31,.27-3.06,.22-4.63,1.41-5.27,4.47-.61,2.94-.69,5.94-.65,9.3Z"/><path class="d" d="M25.69,29.89c0-1.44-.03-2.88,0-4.32,.02-.95,.39-1.41,1.42-.86,2.8,1.49,5.6,2.95,8.42,4.39,1.19,.61,.94,1.04-.06,1.57-2.74,1.46-5.48,2.94-8.19,4.47-1.17,.66-1.59,.23-1.61-.93-.02-1.44,0-2.88,0-4.32h.01Z"/></g></g></g></svg>